<svg width="266" height="53" viewBox="0 0 266 53" fill="none" xmlns="http://www.w3.org/2000/svg">
<g opacity="0.5">
<path d="M5.35789 26.6751L7.47109 28.7883L2.18868 34.0715C0.777809 35.4808 0 37.3575 0 39.3535C0 41.3496 0.777809 43.2262 2.18868 44.6356C3.23964 45.6873 4.55051 46.3849 5.97656 46.6729V50.0117H0V53H14.9414V50.0117H8.96484V46.6729C10.3909 46.3849 11.7022 45.6873 12.7527 44.6356L18.0359 39.3531L20.1491 41.4663L22.2619 39.3535L7.4707 24.5623L5.35789 26.6751Z" fill="white"/>
<path d="M50.1245 2H29.8645L36.6181 15.5064L50.1245 2Z" fill="white"/>
<path d="M12.6951 25.5611L19.5297 32.3957L23.2872 28.6381L15.2005 20.5511L12.6951 25.5611Z" fill="white"/>
<path d="M38.3045 25.5615L26.5233 2H0.875458L31.4703 32.3956L38.3045 25.5615Z" fill="white"/>
<path d="M45.0235 46.6729C46.4495 46.3849 47.7608 45.6873 48.8113 44.6356C50.2222 43.2262 51 41.3496 51 39.3535C51 37.3575 50.2222 35.4808 48.8113 34.0715L43.5289 28.7883L45.6421 26.6751L43.5293 24.5623L28.7381 39.3535L30.8509 41.4663L32.9641 39.3531L38.2473 44.6356C39.2982 45.6873 40.6091 46.3849 42.0352 46.6729V50.0117H36.0586V53H51V50.0117H45.0235V46.6729Z" fill="white"/>
<path d="M53.6823 18.228V12.4664H77.5625V18.228H68.8823V39H62.3626V18.228H53.6823ZM78.623 39V18.9482H84.7636V20.9571C85.4207 20.1738 86.1914 19.5673 87.0758 19.1377C87.9603 18.7081 88.9458 18.4933 90.0324 18.4933C90.6137 18.5186 91.0812 18.5691 91.4349 18.6449C91.7887 18.6955 92.092 18.8092 92.3447 18.9861V24.3307C91.9403 24.1538 91.4855 24.0148 90.9801 23.9137C90.4747 23.7874 89.9566 23.7242 89.426 23.7242C88.4657 23.7242 87.5686 23.9517 86.7347 24.4065C85.9261 24.8614 85.269 25.4805 84.7636 26.2639V39H78.623ZM93.3343 28.993C93.3343 27.5526 93.6123 26.2007 94.1683 24.9372C94.7495 23.6484 95.5202 22.5365 96.4805 21.6015C97.466 20.6665 98.6158 19.9337 99.9298 19.403C101.269 18.8471 102.697 18.5691 104.213 18.5691C105.729 18.5691 107.144 18.8471 108.458 19.403C109.798 19.9337 110.948 20.6665 111.908 21.6015C112.893 22.5365 113.664 23.6484 114.22 24.9372C114.801 26.2007 115.092 27.5526 115.092 28.993C115.092 30.4334 114.801 31.798 114.22 33.0868C113.664 34.3503 112.893 35.4496 111.908 36.3845C110.948 37.3195 109.798 38.0524 108.458 38.583C107.144 39.1137 105.729 39.3791 104.213 39.3791C102.697 39.3791 101.269 39.1137 99.9298 38.583C98.6158 38.0524 97.466 37.3195 96.4805 36.3845C95.5202 35.4496 94.7495 34.3503 94.1683 33.0868C93.6123 31.798 93.3343 30.4334 93.3343 28.993ZM104.213 34.0723C105.578 34.0723 106.727 33.5796 107.662 32.594C108.623 31.6085 109.103 30.4082 109.103 28.993C109.103 27.5526 108.623 26.3397 107.662 25.3541C106.727 24.3686 105.578 23.8758 104.213 23.8758C102.849 23.8758 101.686 24.3686 100.726 25.3541C99.7909 26.3397 99.3234 27.5526 99.3234 28.993C99.3234 30.4082 99.7909 31.6085 100.726 32.594C101.686 33.5796 102.849 34.0723 104.213 34.0723ZM117.247 28.993C117.247 27.5526 117.525 26.2007 118.081 24.9372C118.662 23.6484 119.433 22.5365 120.393 21.6015C121.379 20.6665 122.529 19.9337 123.843 19.403C125.182 18.8471 126.61 18.5691 128.126 18.5691C129.642 18.5691 131.057 18.8471 132.371 19.403C133.711 19.9337 134.86 20.6665 135.821 21.6015C136.806 22.5365 137.577 23.6484 138.133 24.9372C138.714 26.2007 139.005 27.5526 139.005 28.993C139.005 30.4334 138.714 31.798 138.133 33.0868C137.577 34.3503 136.806 35.4496 135.821 36.3845C134.86 37.3195 133.711 38.0524 132.371 38.583C131.057 39.1137 129.642 39.3791 128.126 39.3791C126.61 39.3791 125.182 39.1137 123.843 38.583C122.529 38.0524 121.379 37.3195 120.393 36.3845C119.433 35.4496 118.662 34.3503 118.081 33.0868C117.525 31.798 117.247 30.4334 117.247 28.993ZM128.126 34.0723C129.491 34.0723 130.64 33.5796 131.575 32.594C132.536 31.6085 133.016 30.4082 133.016 28.993C133.016 27.5526 132.536 26.3397 131.575 25.3541C130.64 24.3686 129.491 23.8758 128.126 23.8758C126.761 23.8758 125.599 24.3686 124.639 25.3541C123.704 26.3397 123.236 27.5526 123.236 28.993C123.236 30.4082 123.704 31.6085 124.639 32.594C125.599 33.5796 126.761 34.0723 128.126 34.0723ZM141.885 46.998V18.9482H147.949V20.4265C148.733 19.8705 149.579 19.4409 150.489 19.1377C151.399 18.8345 152.346 18.6828 153.332 18.6828C154.747 18.6828 156.074 18.9482 157.312 19.4788C158.576 20.0095 159.662 20.7423 160.572 21.6773C161.507 22.6123 162.24 23.7116 162.77 24.9751C163.301 26.2133 163.566 27.5526 163.566 28.993C163.566 30.4334 163.288 31.7854 162.732 33.0489C162.202 34.2871 161.469 35.3737 160.534 36.3087C159.599 37.2185 158.487 37.9387 157.198 38.4693C155.935 39 154.583 39.2653 153.142 39.2653C152.207 39.2653 151.31 39.1516 150.451 38.9242C149.592 38.6968 148.783 38.3682 148.025 37.9387V46.998H141.885ZM152.271 23.9137C151.411 23.9137 150.628 24.0527 149.921 24.3307C149.213 24.5834 148.581 24.9751 148.025 25.5058V32.5182C148.556 32.9984 149.188 33.3774 149.921 33.6554C150.653 33.9333 151.437 34.0723 152.271 34.0723C153.762 34.0723 155.012 33.5922 156.023 32.6319C157.034 31.6464 157.539 30.4334 157.539 28.993C157.539 27.5526 157.021 26.3523 155.985 25.392C154.975 24.4065 153.736 23.9137 152.271 23.9137ZM164.568 34.9441L168.207 30.206C169.799 31.4948 171.29 32.4298 172.68 33.011C174.07 33.5922 175.523 33.8828 177.039 33.8828C178.53 33.8828 179.693 33.6554 180.527 33.2005C181.386 32.7456 181.815 32.1139 181.815 31.3053C181.815 30.5724 181.525 30.0038 180.944 29.5995C180.388 29.1952 179.453 28.8793 178.139 28.6519L172.301 27.6285C170.153 27.2494 168.498 26.4281 167.336 25.1646C166.173 23.9011 165.592 22.2965 165.592 20.3507C165.592 17.7984 166.552 15.7894 168.473 14.3237C170.419 12.8328 173.085 12.0873 176.471 12.0873C178.442 12.0873 180.425 12.4285 182.422 13.1108C184.443 13.7931 186.174 14.7154 187.615 15.8779L184.165 20.6918C182.776 19.6052 181.411 18.8092 180.072 18.3038C178.758 17.7984 177.406 17.5457 176.016 17.5457C174.702 17.5457 173.653 17.7605 172.87 18.1901C172.112 18.5944 171.733 19.1503 171.733 19.8579C171.733 20.5149 171.973 21.033 172.453 21.412C172.958 21.7658 173.767 22.0311 174.879 22.208L180.375 23.1177C182.927 23.5221 184.86 24.3686 186.174 25.6574C187.514 26.9462 188.183 28.614 188.183 30.6609C188.183 33.3395 187.135 35.4622 185.037 37.0289C182.965 38.5957 180.135 39.3791 176.547 39.3791C174.424 39.3791 172.301 38.9874 170.178 38.204C168.081 37.4206 166.211 36.334 164.568 34.9441ZM190.858 39V12.4664L196.998 11.1397V20.3128C197.731 19.7568 198.553 19.3272 199.462 19.024C200.397 18.7207 201.37 18.5691 202.381 18.5691C204.731 18.5691 206.652 19.3272 208.143 20.8434C209.633 22.3596 210.379 24.2928 210.379 26.6429V39H204.238V27.4768C204.238 26.3902 203.897 25.5184 203.215 24.8614C202.558 24.1791 201.686 23.8379 200.599 23.8379C199.816 23.8379 199.121 23.9769 198.515 24.2549C197.908 24.5329 197.403 24.9246 196.998 25.43V39H190.858ZM213.121 28.993C213.121 27.5526 213.399 26.2007 213.954 24.9372C214.536 23.6484 215.306 22.5365 216.267 21.6015C217.252 20.6665 218.402 19.9337 219.716 19.403C221.055 18.8471 222.483 18.5691 223.999 18.5691C225.516 18.5691 226.931 18.8471 228.245 19.403C229.584 19.9337 230.734 20.6665 231.694 21.6015C232.68 22.5365 233.45 23.6484 234.006 24.9372C234.588 26.2007 234.878 27.5526 234.878 28.993C234.878 30.4334 234.588 31.798 234.006 33.0868C233.45 34.3503 232.68 35.4496 231.694 36.3845C230.734 37.3195 229.584 38.0524 228.245 38.583C226.931 39.1137 225.516 39.3791 223.999 39.3791C222.483 39.3791 221.055 39.1137 219.716 38.583C218.402 38.0524 217.252 37.3195 216.267 36.3845C215.306 35.4496 214.536 34.3503 213.954 33.0868C213.399 31.798 213.121 30.4334 213.121 28.993ZM223.999 34.0723C225.364 34.0723 226.514 33.5796 227.449 32.594C228.409 31.6085 228.889 30.4082 228.889 28.993C228.889 27.5526 228.409 26.3397 227.449 25.3541C226.514 24.3686 225.364 23.8758 223.999 23.8758C222.635 23.8758 221.472 24.3686 220.512 25.3541C219.577 26.3397 219.11 27.5526 219.11 28.993C219.11 30.4082 219.577 31.6085 220.512 32.594C221.472 33.5796 222.635 34.0723 223.999 34.0723ZM247.167 39H241.254L235.796 18.9482H241.595L244.552 30.7367L248.153 18.9482H253.232L256.833 30.7746L259.752 18.9482H265.476L259.979 39H254.104L250.617 27.401L247.167 39Z" fill="white"/>
</g>
</svg>
